<svg width="20" height="20" xmlns="http://www.w3.org/2000/svg"><path d="M10 15a5 5 0 1 0 0-10 5 5 0 0 0 0 10Zm0-15a.62.62 0 0 1 .63.63v2.5a.62.62 0 1 1-1.26 0V.63A.63.63 0 0 1 10 0Zm0 16.25a.62.62 0 0 1 .63.63v2.5a.62.62 0 1 1-1.26 0v-2.5a.62.62 0 0 1 .63-.63ZM20 10a.62.62 0 0 1-.63.63h-2.5a.62.62 0 1 1 0-1.26h2.5A.62.62 0 0 1 20 10ZM3.75 10a.62.62 0 0 1-.63.63H.63a.62.62 0 1 1 0-1.26h2.5a.62.62 0 0 1 .63.63Zm13.32-7.07a.63.63 0 0 1 0 .88L15.3 5.58a.63.63 0 0 1-.88-.88l1.77-1.77a.62.62 0 0 1 .88 0ZM5.58 14.42a.62.62 0 0 1 0 .88l-1.77 1.77a.63.63 0 0 1-.88-.88l1.77-1.77a.62.62 0 0 1 .88 0Zm11.5 2.65a.63.63 0 0 1-.9 0l-1.76-1.77a.63.63 0 0 1 .88-.88l1.77 1.77a.63.63 0 0 1 0 .88ZM5.57 5.58a.62.62 0 0 1-.88 0L2.93 3.81a.62.62 0 1 1 .88-.88L5.58 4.7a.63.63 0 0 1 0 .88Z"/></svg>


