<svg xmlns="http://www.w3.org/2000/svg" width="16" height="13" fill="none"><path fill="#9C9C9C" d="M13.4 9.6C15 8 16 6.4 16 6.4S13 .9 8 .9c-1 0-2 .2-2.8.5l.8.8A6 6 0 0 1 8 2c2.1 0 3.9 1.1 5.2 2.4l1.6 2c0 .1 0 .2-.2.3a13.2 13.2 0 0 1-2 2.3l.8.7Z"/><path fill="#9C9C9C" d="M11.3 7.5a3.5 3.5 0 0 0-4.5-4.4l.8.8a2.5 2.5 0 0 1 2.9 2.8l.8.8Zm-3 1.3.9.9a3.5 3.5 0 0 1-4.5-4.5l.8.8a2.5 2.5 0 0 0 2.9 2.8Z"/><path fill="#9C9C9C" d="M3.4 3.8a12.1 12.1 0 0 0-2.2 2.6l.2.2c.3.5.8 1.2 1.4 1.8 1.3 1.3 3 2.5 5.2 2.5a6 6 0 0 0 2-.4l.8.8a7 7 0 0 1-2.8.6c-5 0-8-5.5-8-5.5S1 4.6 2.6 3l.7.7Zm10.2 9L1.6.7l.8-.8 12 12-.8.7Z"/></svg>