<svg width="24" height="24" xmlns="http://www.w3.org/2000/svg"><path d="M12.64 14.1a2.18 2.18 0 1 1-1.27-4.19 2.18 2.18 0 0 1 1.27 4.18Z"/><path fill-rule="evenodd" clip-rule="evenodd" d="M12 6.63c1.75 0 1.96.01 2.65.04.63.03.98.14 1.21.23.29.1.54.27.75.49.23.23.37.44.5.75.08.23.19.58.22 1.22.03.69.04.9.04 2.64 0 1.75-.01 1.95-.04 2.64-.03.64-.14.99-.23 1.22-.1.28-.27.54-.49.75-.23.23-.44.37-.75.5-.23.08-.58.19-1.21.22-.7.03-.9.04-2.65.04s-1.95-.01-2.64-.04a3.62 3.62 0 0 1-1.22-.23c-.28-.1-.54-.27-.75-.49a2.03 2.03 0 0 1-.5-.75c-.08-.23-.19-.58-.22-1.21-.03-.7-.04-.9-.04-2.65s.01-1.95.04-2.64c.03-.64.14-.99.23-1.22.1-.28.27-.54.49-.75.23-.23.44-.37.75-.5.23-.08.58-.19 1.22-.22.69-.03.9-.04 2.64-.04ZM10.71 8.9a3.37 3.37 0 1 0 2.58 6.22 3.37 3.37 0 0 0-2.58-6.22Zm5.58-.01a.8.8 0 1 1-1.45-.64.8.8 0 0 1 1.45.64Z"/><path fill-rule="evenodd" clip-rule="evenodd" d="M12 24a12 12 0 1 0 0-24 12 12 0 0 0 0 24Zm0-18.55c-1.78 0-2 .01-2.7.04-.7.04-1.17.15-1.59.3a3.2 3.2 0 0 0-1.16.76c-.33.33-.59.73-.75 1.16-.16.42-.27.9-.3 1.6-.04.69-.04.91-.04 2.69 0 1.78 0 2 .03 2.7.04.7.15 1.17.3 1.59.17.43.43.83.76 1.16.33.33.73.59 1.16.75.42.16.9.27 1.6.3.69.04.91.05 2.69.05 1.78 0 2-.01 2.7-.04.7-.04 1.17-.15 1.59-.3a3.2 3.2 0 0 0 1.16-.76c.33-.33.59-.73.75-1.16.16-.42.28-.9.3-1.6.04-.69.05-.91.05-2.69 0-1.78-.01-2-.04-2.7a4.81 4.81 0 0 0-.3-1.59 3.2 3.2 0 0 0-.76-1.16c-.33-.33-.73-.59-1.16-.75-.42-.16-.9-.27-1.6-.3-.69-.04-.91-.05-2.69-.05Z"/></svg>



