<svg width="24" height="24" xmlns="http://www.w3.org/2000/svg"><path d="M12 0a12 12 0 1 0 0 24 12 12 0 0 0 0-24Zm4.61 13.54a11 11 0 0 0 1.33 1.53l.01.03c.1.18.13.31.08.42-.09.17-.39.26-.49.26h-1.88c-.13 0-.4-.03-.73-.26-.25-.17-.5-.47-.74-.75-.37-.42-.68-.79-1-.79-.04 0-.08 0-.12.02-.24.08-.55.42-.55 1.33 0 .29-.22.45-.38.45h-.86c-.3 0-1.82-.1-3.17-1.52-1.65-1.75-3.14-5.24-3.15-5.28-.1-.22.1-.35.31-.35h1.9c.25 0 .33.16.39.3.07.15.31.79.72 1.5.66 1.15 1.06 1.62 1.39 1.62.06 0 .12-.01.17-.04.42-.24.34-1.74.32-2.06 0-.05 0-.67-.21-.96a.93.93 0 0 0-.58-.33.69.69 0 0 1 .25-.21c.29-.15.81-.17 1.33-.17h.29c.56.01.7.05.9.1.42.1.43.36.4 1.27-.02.26-.03.55-.03.9v.24c-.02.46-.03.99.3 1.2.04.03.09.05.14.05.11 0 .46 0 1.38-1.6.29-.5.54-1.04.75-1.59.02-.03.07-.13.14-.17.04-.02.1-.03.15-.03h2.23c.24 0 .4.03.44.13.05.15-.01.6-1.03 1.98l-.45.6c-.92 1.2-.92 1.26.05 2.18Z"/></svg>

